# xmcd
# Copyright (C) 1995-1998 Ti Kan
#
# Track frame offsets:
#       150
#       1967
#       25255
#       47623
#       58322
#       75991
#       84303
#       93742
#       113660
#       117976
#       123861
#       148109
#
# Disc length: 2250 seconds
#
# Revision: 0
# Processed by: cddbd v1.5.2PL0 Copyright (c) Steve Scherf et al.
# Submitted via: CD-Transfer v1.0
#
DISCID=9308c80c
DTITLE=Christopher Willits - Surf Boundaries
DYEAR=06
DGENRE=
TTITLE0=Clouds Form
TTITLE1=Clolors Shifting
TTITLE2=Medium Blue
TTITLE3=Love Wind
TTITLE4=Orange Lit Spaces
TTITLE5=Finding Ground
TTITLE6=Saturn
TTITLE7=Green And Gold
TTITLE8=Like Water
TTITLE9=Dive
TTITLE10=Yellow Spring
TTITLE11=The Greatest Rain
EXTD=
EXTT0=
EXTT1=
EXTT2=
EXTT3=
EXTT4=
EXTT5=
EXTT6=
EXTT7=
EXTT8=
EXTT9=
EXTT10=
EXTT11=
PLAYORDER=
